<svg width="295" height="263" viewBox="0 0 295 263" fill="none" xmlns="http://www.w3.org/2000/svg">
<circle cx="7.5" cy="171.5" r="7.5" fill="#B732F5"/>
<path d="M85.5 66L86.7154 69.2846L90 70.5L86.7154 71.7154L85.5 75L84.2846 71.7154L81 70.5L84.2846 69.2846L85.5 66Z" fill="#B732F5"/>
<path d="M237.5 0.00012207L238.715 3.28471L242 4.50012L238.715 5.71553L237.5 9.00012L236.285 5.71553L233 4.50012L236.285 3.28471L237.5 0.00012207Z" fill="#B732F5"/>
<path d="M218.5 196L219.715 199.285L223 200.5L219.715 201.715L218.5 205L217.285 201.715L214 200.5L217.285 199.285L218.5 196Z" fill="#4E33CB"/>
<path d="M226.5 83L227.445 85.5547L230 86.5L227.445 87.4453L226.5 90L225.555 87.4453L223 86.5L225.555 85.5547L226.5 83Z" fill="#311A9B"/>
<circle cx="36" cy="79" r="19.5" fill="#4E33CB" stroke="#4E33CB"/>
<path d="M142 13.5C142 15.9853 139.985 18 137.5 18C135.015 18 133 15.9853 133 13.5C133 11.0147 135.015 9 137.5 9C139.985 9 142 11.0147 142 13.5Z" fill="#311A9B"/>
<path d="M61.5 14L62.1752 15.8248L64 16.5L62.1752 17.1752L61.5 19L60.8248 17.1752L59 16.5L60.8248 15.8248L61.5 14Z" fill="#311A9B"/>
<circle cx="163.5" cy="224.5" r="38.5" fill="#B732F5"/>
</svg>
