<svg width="339" height="209" viewBox="0 0 339 209" fill="none" xmlns="http://www.w3.org/2000/svg">
<rect x="63" y="189" width="9" height="9" rx="2" fill="#B933F9"/>
<path d="M85.204 198H86.44L83.392 189.528H82.144L79.096 198H80.32L81.16 195.564H84.352L85.204 198ZM82.78 190.692C82.78 190.692 82.96 191.46 83.104 191.892L84.04 194.58H81.472L82.42 191.892C82.564 191.46 82.756 190.692 82.756 190.692H82.78ZM88.6248 198H89.9208L91.1688 194.1C91.2648 193.788 91.3368 193.44 91.3368 193.44H91.3608C91.3608 193.44 91.4328 193.788 91.5288 194.1L92.7888 198H94.0728L96.0288 191.928H94.8048L93.5328 196.188C93.4368 196.5 93.3888 196.836 93.3888 196.836H93.3648C93.3648 196.836 93.2928 196.5 93.1968 196.188L91.8888 191.94H90.8208L89.5008 196.188C89.4048 196.5 89.3448 196.836 89.3448 196.836H89.3208C89.3088 196.836 89.2608 196.5 89.1648 196.188L87.9048 191.928H86.6688L88.6248 198ZM96.6583 196.296C96.6583 197.508 97.6783 198.144 98.7223 198.144C100.174 198.144 100.666 196.944 100.666 196.944H100.69C100.69 196.944 100.666 197.148 100.666 197.424V198H101.746V194.16C101.746 192.624 100.882 191.784 99.3463 191.784C97.9543 191.784 97.0783 192.504 97.0783 192.504L97.5583 193.356C97.5583 193.356 98.3143 192.768 99.2503 192.768C100.018 192.768 100.582 193.104 100.582 194.1V194.208H100.318C99.2983 194.208 96.6583 194.292 96.6583 196.296ZM97.8343 196.236C97.8343 195.144 99.4183 195.084 100.294 195.084H100.594V195.276C100.594 196.176 99.9583 197.208 98.9743 197.208C98.2183 197.208 97.8343 196.728 97.8343 196.236ZM103.49 198H104.654V195.144H105.53L107.354 198H108.71L106.466 194.628V194.604L108.482 191.928H107.162L105.506 194.16H104.654V189.528H103.49V198ZM109.293 194.964C109.293 196.764 110.601 198.144 112.509 198.144C113.961 198.144 114.861 197.28 114.861 197.28L114.381 196.428C114.381 196.428 113.625 197.136 112.581 197.136C111.501 197.136 110.553 196.464 110.493 195.132H114.921C114.921 195.132 114.957 194.784 114.957 194.628C114.957 193.056 114.045 191.784 112.329 191.784C110.601 191.784 109.293 193.032 109.293 194.964ZM110.529 194.256C110.697 193.26 111.417 192.708 112.305 192.708C113.085 192.708 113.733 193.212 113.769 194.256H110.529Z" fill="black" fill-opacity="0.7"/>
<rect x="153" y="189" width="9" height="9" rx="2" fill="#260CBC"/>
<path d="M170.152 198H172.96C175.552 198 177.256 196.44 177.256 193.752C177.256 191.076 175.552 189.528 172.96 189.528H170.152V198ZM171.34 196.968V190.56H172.876C174.772 190.56 176.032 191.676 176.032 193.752C176.032 195.84 174.784 196.968 172.876 196.968H171.34ZM178.375 194.964C178.375 196.764 179.683 198.144 181.591 198.144C183.043 198.144 183.943 197.28 183.943 197.28L183.463 196.428C183.463 196.428 182.707 197.136 181.663 197.136C180.583 197.136 179.635 196.464 179.575 195.132H184.003C184.003 195.132 184.039 194.784 184.039 194.628C184.039 193.056 183.127 191.784 181.411 191.784C179.683 191.784 178.375 193.032 178.375 194.964ZM179.611 194.256C179.779 193.26 180.499 192.708 181.387 192.708C182.167 192.708 182.815 193.212 182.851 194.256H179.611ZM185.031 194.964C185.031 196.764 186.339 198.144 188.247 198.144C189.699 198.144 190.599 197.28 190.599 197.28L190.119 196.428C190.119 196.428 189.363 197.136 188.319 197.136C187.239 197.136 186.291 196.464 186.231 195.132H190.659C190.659 195.132 190.695 194.784 190.695 194.628C190.695 193.056 189.783 191.784 188.067 191.784C186.339 191.784 185.031 193.032 185.031 194.964ZM186.267 194.256C186.435 193.26 187.155 192.708 188.043 192.708C188.823 192.708 189.471 193.212 189.507 194.256H186.267ZM192.107 200.4H193.271V197.676C193.271 197.364 193.247 197.148 193.247 197.148H193.271C193.271 197.148 193.799 198.144 195.131 198.144C196.715 198.144 197.879 196.896 197.879 194.964C197.879 193.08 196.847 191.784 195.215 191.784C193.691 191.784 193.175 192.888 193.175 192.888H193.151C193.151 192.888 193.175 192.684 193.175 192.444V191.928H192.107V200.4ZM193.235 194.988C193.235 193.44 194.075 192.804 194.987 192.804C195.995 192.804 196.703 193.656 196.703 194.976C196.703 196.356 195.911 197.148 194.951 197.148C193.835 197.148 193.235 196.068 193.235 194.988Z" fill="black" fill-opacity="0.7"/>
<rect x="235" y="189" width="9" height="9" rx="2" fill="#9182F0"/>
<path d="M252.152 198H257.132V196.968H253.34V189.528H252.152V198ZM258.252 190.716H259.428V189.528H258.252V190.716ZM258.264 198H259.428V191.928H258.264V198ZM261.792 199.104L261.408 200.016C261.996 200.316 262.752 200.52 263.484 200.52C265.02 200.52 266.544 199.752 266.544 197.748V191.928H265.428V192.492C265.428 192.6 265.44 192.684 265.44 192.684H265.416C265.416 192.684 264.972 191.784 263.508 191.784C261.828 191.784 260.856 193.08 260.856 194.82C260.856 196.572 261.876 197.928 263.568 197.928C264.444 197.928 265.008 197.58 265.368 196.98H265.392C265.392 196.98 265.38 197.172 265.38 197.364V197.808C265.38 199.044 264.516 199.512 263.46 199.512C262.548 199.512 261.792 199.104 261.792 199.104ZM263.796 196.92C262.704 196.92 262.032 196.056 262.032 194.796C262.032 193.56 262.632 192.792 263.688 192.792C264.636 192.792 265.404 193.248 265.404 194.832C265.404 196.416 264.636 196.92 263.796 196.92ZM268.365 198H269.529V195.156C269.529 194.868 269.553 194.592 269.625 194.352C269.877 193.476 270.633 192.852 271.545 192.852C272.517 192.852 272.697 193.524 272.697 194.376V198H273.861V194.112C273.861 192.564 273.201 191.784 271.773 191.784C270.561 191.784 269.793 192.552 269.529 193.14H269.505C269.505 193.14 269.529 192.924 269.529 192.636V189.528H268.365V198ZM275.848 195.78C275.848 197.808 277.396 198.048 278.176 198.048C278.416 198.048 278.584 198.024 278.584 198.024V196.992C278.584 196.992 278.476 197.016 278.308 197.016C277.864 197.016 277.012 196.86 277.012 195.648V192.948H278.476V192.012H277.012V190.26H275.884V192.012H275.056V192.948H275.848V195.78Z" fill="black" fill-opacity="0.7"/>
<path d="M3.25 37L3.25 72.5" stroke="#15037E" stroke-opacity="0.7" stroke-width="0.25" stroke-dasharray="3 3"/>
<rect x="3" y="92" width="0.5" height="60" fill="#15037E" fill-opacity="0.7"/>
<rect y="72" width="6" height="67" rx="3" fill="#9182F0"/>
<path d="M40 92H40.5V152H40V92Z" fill="#15037E" fill-opacity="0.7"/>
<rect x="37" y="91" width="6" height="48" rx="3" fill="#260CBC"/>
<rect x="77" y="92" width="0.5" height="60" fill="#15037E" fill-opacity="0.7"/>
<rect x="74" y="72" width="6" height="67" rx="3" fill="#9182F0"/>
<rect x="114" y="92" width="0.5" height="60" fill="#15037E" fill-opacity="0.7"/>
<rect x="111" y="91" width="6" height="48" rx="3" fill="#260CBC"/>
<rect x="157" y="89" width="0.5" height="60" fill="#B933F9" fill-opacity="0.7"/>
<rect x="148" y="72" width="6" height="42" rx="3" fill="#B933F9"/>
<rect x="188" y="92" width="0.5" height="60" fill="#15037E" fill-opacity="0.7"/>
<rect x="185" y="72" width="6" height="35" rx="3" fill="#9182F0"/>
<rect x="225" y="92" width="0.5" height="60" fill="#15037E" fill-opacity="0.7"/>
<rect x="222" y="72" width="6" height="55" rx="3" fill="#260CBC"/>
<rect x="262" y="92" width="0.5" height="60" fill="#B339EC" fill-opacity="0.7"/>
<rect x="259" y="91" width="6" height="55" rx="3" fill="#B933F9"/>
<rect x="299" y="92" width="0.5" height="60" fill="#15037E" fill-opacity="0.7"/>
<rect x="296" y="91" width="6" height="48" rx="3" fill="#9182F0"/>
<path d="M336.25 37.5V73.5" stroke="#15037E" stroke-opacity="0.7" stroke-width="0.25" stroke-dasharray="3 3"/>
<rect x="336" y="92" width="0.5" height="60" fill="#15037E" fill-opacity="0.7"/>
<rect x="333" y="72" width="6" height="55" rx="3" fill="#5239EC"/>
<path d="M9.05 23.062C9.05 23.7513 8.97483 24.349 8.8245 24.855C8.67783 25.3573 8.47617 25.7735 8.2195 26.1035C7.96283 26.4335 7.6585 26.6792 7.3065 26.8405C6.95817 27.0018 6.58417 27.0825 6.1845 27.0825C5.78117 27.0825 5.40533 27.0018 5.057 26.8405C4.71233 26.6792 4.41167 26.4335 4.155 26.1035C3.89833 25.7735 3.69667 25.3573 3.55 24.855C3.40333 24.349 3.33 23.7513 3.33 23.062C3.33 22.3727 3.40333 21.775 3.55 21.269C3.69667 20.763 3.89833 20.345 4.155 20.015C4.41167 19.6813 4.71233 19.4338 5.057 19.2725C5.40533 19.1112 5.78117 19.0305 6.1845 19.0305C6.58417 19.0305 6.95817 19.1112 7.3065 19.2725C7.6585 19.4338 7.96283 19.6813 8.2195 20.015C8.47617 20.345 8.67783 20.763 8.8245 21.269C8.97483 21.775 9.05 22.3727 9.05 23.062ZM8.0325 23.062C8.0325 22.4607 7.98117 21.9565 7.8785 21.5495C7.7795 21.1388 7.64383 20.8088 7.4715 20.5595C7.30283 20.3102 7.10667 20.1323 6.883 20.026C6.65933 19.916 6.4265 19.861 6.1845 19.861C5.9425 19.861 5.70967 19.916 5.486 20.026C5.26233 20.1323 5.06617 20.3102 4.8975 20.5595C4.72883 20.8088 4.59317 21.1388 4.4905 21.5495C4.3915 21.9565 4.342 22.4607 4.342 23.062C4.342 23.6633 4.3915 24.1675 4.4905 24.5745C4.59317 24.9815 4.72883 25.3097 4.8975 25.559C5.06617 25.8083 5.26233 25.988 5.486 26.098C5.70967 26.2043 5.9425 26.2575 6.1845 26.2575C6.4265 26.2575 6.65933 26.2043 6.883 26.098C7.10667 25.988 7.30283 25.8083 7.4715 25.559C7.64383 25.3097 7.7795 24.9815 7.8785 24.5745C7.98117 24.1675 8.0325 23.6633 8.0325 23.062ZM15.4199 26.252V27H11.1959V26.252H12.8844V20.8785C12.8844 20.7172 12.8899 20.554 12.9009 20.389L11.4984 21.5935C11.4507 21.6338 11.403 21.6595 11.3554 21.6705C11.3077 21.6778 11.2637 21.6778 11.2234 21.6705C11.183 21.6632 11.1445 21.6485 11.1079 21.6265C11.0749 21.6045 11.0492 21.5807 11.0309 21.555L10.7229 21.1315L13.0714 19.102H13.8689V26.252H15.4199ZM17.2522 26.395C17.2522 26.2997 17.2687 26.2098 17.3017 26.1255C17.3384 26.0412 17.3861 25.9678 17.4447 25.9055C17.5071 25.8432 17.5804 25.7937 17.6647 25.757C17.7491 25.7203 17.8389 25.702 17.9342 25.702C18.0296 25.702 18.1194 25.7203 18.2037 25.757C18.2881 25.7937 18.3614 25.8432 18.4237 25.9055C18.4861 25.9678 18.5356 26.0412 18.5722 26.1255C18.6089 26.2098 18.6272 26.2997 18.6272 26.395C18.6272 26.494 18.6089 26.5857 18.5722 26.67C18.5356 26.7507 18.4861 26.8222 18.4237 26.8845C18.3614 26.9468 18.2881 26.9945 18.2037 27.0275C18.1194 27.0642 18.0296 27.0825 17.9342 27.0825C17.8389 27.0825 17.7491 27.0642 17.6647 27.0275C17.5804 26.9945 17.5071 26.9468 17.4447 26.8845C17.3861 26.8222 17.3384 26.7507 17.3017 26.67C17.2687 26.5857 17.2522 26.494 17.2522 26.395ZM25.2803 26.252V27H21.0563V26.252H22.7448V20.8785C22.7448 20.7172 22.7503 20.554 22.7613 20.389L21.3588 21.5935C21.3112 21.6338 21.2635 21.6595 21.2158 21.6705C21.1682 21.6778 21.1242 21.6778 21.0838 21.6705C21.0435 21.6632 21.005 21.6485 20.9683 21.6265C20.9353 21.6045 20.9097 21.5807 20.8913 21.555L20.5833 21.1315L22.9318 19.102H23.7293V26.252H25.2803ZM27.2172 21.2525C27.2685 20.8932 27.3675 20.576 27.5142 20.301C27.6609 20.0223 27.846 19.7895 28.0697 19.6025C28.297 19.4155 28.5555 19.2743 28.8452 19.179C29.1385 19.08 29.4539 19.0305 29.7912 19.0305C30.1249 19.0305 30.4329 19.0782 30.7152 19.1735C30.9975 19.2688 31.2395 19.4045 31.4412 19.5805C31.6465 19.7565 31.806 19.9692 31.9197 20.2185C32.0334 20.4678 32.0902 20.7447 32.0902 21.049C32.0902 21.2983 32.0572 21.522 31.9912 21.72C31.9289 21.9143 31.8372 22.0848 31.7162 22.2315C31.5989 22.3782 31.4559 22.5028 31.2872 22.6055C31.1185 22.7082 30.9297 22.7925 30.7207 22.8585C31.234 22.9905 31.619 23.2178 31.8757 23.5405C32.136 23.8595 32.2662 24.2592 32.2662 24.7395C32.2662 25.1025 32.1965 25.4288 32.0572 25.7185C31.9215 26.0082 31.7345 26.2557 31.4962 26.461C31.2579 26.6627 30.9792 26.8185 30.6602 26.9285C30.3449 27.0348 30.0057 27.088 29.6427 27.088C29.2247 27.088 28.8672 27.0367 28.5702 26.934C28.2732 26.8277 28.022 26.6828 27.8167 26.4995C27.6114 26.3162 27.4427 26.0998 27.3107 25.8505C27.1787 25.5975 27.0669 25.3243 26.9752 25.031L27.3987 24.855C27.5087 24.8073 27.615 24.7945 27.7177 24.8165C27.824 24.8385 27.901 24.899 27.9487 24.998C27.9964 25.1007 28.055 25.2235 28.1247 25.3665C28.198 25.5095 28.297 25.647 28.4217 25.779C28.5464 25.911 28.704 26.0228 28.8947 26.1145C29.089 26.2062 29.3347 26.252 29.6317 26.252C29.9067 26.252 30.1469 26.208 30.3522 26.12C30.5612 26.0283 30.7335 25.911 30.8692 25.768C31.0085 25.625 31.113 25.4655 31.1827 25.2895C31.2524 25.1135 31.2872 24.9393 31.2872 24.767C31.2872 24.5543 31.2597 24.36 31.2047 24.184C31.1497 24.008 31.047 23.8558 30.8967 23.7275C30.7464 23.5992 30.5392 23.4983 30.2752 23.425C30.0149 23.3517 29.6794 23.315 29.2687 23.315V22.6055C29.606 22.6018 29.892 22.5652 30.1267 22.4955C30.365 22.4258 30.5575 22.3305 30.7042 22.2095C30.8545 22.0885 30.9627 21.9437 31.0287 21.775C31.0984 21.6063 31.1332 21.4193 31.1332 21.214C31.1332 20.9867 31.0965 20.7887 31.0232 20.62C30.9535 20.4513 30.8564 20.312 30.7317 20.202C30.607 20.092 30.4585 20.0095 30.2862 19.9545C30.1175 19.8995 29.9342 19.872 29.7362 19.872C29.5382 19.872 29.353 19.9013 29.1807 19.96C29.012 20.0187 28.8617 20.1012 28.7297 20.2075C28.6014 20.3102 28.4932 20.433 28.4052 20.576C28.3172 20.719 28.2549 20.8767 28.2182 21.049C28.1705 21.1773 28.11 21.2635 28.0367 21.3075C27.967 21.3478 27.8644 21.3588 27.7287 21.3405L27.2172 21.2525Z" fill="#3D278A" fill-opacity="0.7"/>
<path d="M154.654 7.553L154.304 7.987C154.5 7.889 154.71 7.81433 154.934 7.763C155.163 7.707 155.408 7.679 155.669 7.679C156.052 7.679 156.423 7.742 156.782 7.868C157.146 7.994 157.466 8.18533 157.741 8.442C158.016 8.694 158.238 9.009 158.406 9.387C158.574 9.765 158.658 10.206 158.658 10.71C158.658 11.1813 158.572 11.6247 158.399 12.04C158.226 12.4507 157.984 12.81 157.671 13.118C157.358 13.426 156.98 13.6687 156.537 13.846C156.098 14.0233 155.613 14.112 155.081 14.112C154.54 14.112 154.054 14.0257 153.625 13.853C153.196 13.6803 152.829 13.44 152.526 13.132C152.223 12.8193 151.989 12.446 151.826 12.012C151.667 11.5733 151.588 11.088 151.588 10.556C151.588 10.08 151.684 9.59233 151.875 9.093C152.071 8.589 152.372 8.06633 152.778 7.525L155.193 4.284C155.277 4.172 155.398 4.07633 155.557 3.997C155.72 3.91767 155.907 3.878 156.117 3.878H157.657L154.654 7.553ZM155.046 12.698C155.321 12.698 155.573 12.6513 155.802 12.558C156.035 12.4647 156.234 12.334 156.397 12.166C156.565 11.998 156.696 11.802 156.789 11.578C156.882 11.3493 156.929 11.102 156.929 10.836C156.929 10.5467 156.885 10.2877 156.796 10.059C156.707 9.82567 156.581 9.62967 156.418 9.471C156.255 9.30767 156.059 9.184 155.83 9.1C155.601 9.016 155.349 8.974 155.074 8.974C154.799 8.974 154.549 9.02067 154.325 9.114C154.101 9.20733 153.91 9.338 153.751 9.506C153.592 9.66933 153.469 9.86533 153.38 10.094C153.291 10.318 153.247 10.5607 153.247 10.822C153.247 11.102 153.284 11.3587 153.359 11.592C153.438 11.8207 153.553 12.0167 153.702 12.18C153.856 12.3433 154.045 12.4717 154.269 12.565C154.493 12.6537 154.752 12.698 155.046 12.698ZM162.264 7.588C162.544 7.32667 162.852 7.11433 163.188 6.951C163.524 6.78767 163.918 6.706 164.371 6.706C164.763 6.706 165.111 6.77367 165.414 6.909C165.717 7.03967 165.969 7.22633 166.17 7.469C166.375 7.707 166.529 7.994 166.632 8.33C166.739 8.66133 166.793 9.02767 166.793 9.429V14H165.064V9.429C165.064 8.99033 164.964 8.652 164.763 8.414C164.562 8.17133 164.257 8.05 163.846 8.05C163.547 8.05 163.267 8.11767 163.006 8.253C162.745 8.38833 162.497 8.57267 162.264 8.806V14H160.535V3.598H162.264V7.588ZM170.985 7.553C171.209 7.50633 171.424 7.47367 171.629 7.455C171.835 7.43167 172.033 7.42 172.224 7.42C172.756 7.42 173.225 7.49933 173.631 7.658C174.037 7.81667 174.378 8.036 174.653 8.316C174.929 8.596 175.136 8.925 175.276 9.303C175.416 9.67633 175.486 10.08 175.486 10.514C175.486 11.0507 175.391 11.5407 175.199 11.984C175.013 12.4273 174.751 12.8077 174.415 13.125C174.079 13.4377 173.68 13.6803 173.218 13.853C172.761 14.0257 172.262 14.112 171.72 14.112C171.403 14.112 171.102 14.0793 170.817 14.014C170.533 13.9487 170.264 13.8623 170.012 13.755C169.765 13.643 169.534 13.517 169.319 13.377C169.109 13.2323 168.92 13.0807 168.752 12.922L169.284 12.187C169.396 12.0283 169.543 11.949 169.725 11.949C169.842 11.949 169.961 11.9863 170.082 12.061C170.204 12.1357 170.341 12.2173 170.495 12.306C170.654 12.3947 170.838 12.4763 171.048 12.551C171.263 12.6257 171.52 12.663 171.818 12.663C172.136 12.663 172.416 12.6117 172.658 12.509C172.901 12.4063 173.102 12.264 173.26 12.082C173.424 11.8953 173.545 11.676 173.624 11.424C173.708 11.1673 173.75 10.8897 173.75 10.591C173.75 10.0403 173.589 9.611 173.267 9.303C172.95 8.99033 172.479 8.834 171.853 8.834C171.373 8.834 170.88 8.92267 170.376 9.1L169.298 8.792L170.138 3.878H175.136V4.613C175.136 4.86033 175.059 5.061 174.905 5.215C174.751 5.369 174.49 5.446 174.121 5.446H171.342L170.985 7.553ZM183.692 12.39C183.878 12.39 184.025 12.4437 184.133 12.551C184.245 12.6537 184.301 12.7913 184.301 12.964V14H177.357V13.426C177.357 13.3093 177.38 13.188 177.427 13.062C177.478 12.9313 177.557 12.8147 177.665 12.712L180.738 9.632C180.994 9.37067 181.223 9.121 181.424 8.883C181.629 8.645 181.799 8.40933 181.935 8.176C182.07 7.94267 182.173 7.707 182.243 7.469C182.317 7.22633 182.355 6.972 182.355 6.706C182.355 6.46333 182.32 6.251 182.25 6.069C182.18 5.88233 182.079 5.726 181.949 5.6C181.823 5.474 181.669 5.38067 181.487 5.32C181.309 5.25467 181.109 5.222 180.885 5.222C180.679 5.222 180.488 5.25233 180.311 5.313C180.138 5.369 179.984 5.45067 179.849 5.558C179.713 5.66067 179.599 5.782 179.506 5.922C179.412 6.062 179.342 6.216 179.296 6.384C179.216 6.59867 179.114 6.741 178.988 6.811C178.862 6.881 178.68 6.89733 178.442 6.86L177.532 6.699C177.602 6.21367 177.737 5.789 177.938 5.425C178.138 5.05633 178.388 4.75067 178.687 4.508C178.99 4.26067 179.335 4.07633 179.723 3.955C180.115 3.829 180.535 3.766 180.983 3.766C181.449 3.766 181.876 3.836 182.264 3.976C182.651 4.11133 182.982 4.305 183.258 4.557C183.533 4.809 183.748 5.11233 183.902 5.467C184.056 5.82167 184.133 6.216 184.133 6.65C184.133 7.02333 184.077 7.36867 183.965 7.686C183.857 8.00333 183.71 8.30667 183.524 8.596C183.342 8.88533 183.127 9.16533 182.88 9.436C182.632 9.70667 182.373 9.982 182.103 10.262L179.821 12.593C180.04 12.5277 180.257 12.4787 180.472 12.446C180.691 12.4087 180.899 12.39 181.095 12.39H183.692Z" fill="#260CBC"/>
<path d="M313.05 23.062C313.05 23.7513 312.975 24.349 312.825 24.855C312.678 25.3573 312.476 25.7735 312.22 26.1035C311.963 26.4335 311.659 26.6792 311.307 26.8405C310.958 27.0018 310.584 27.0825 310.185 27.0825C309.781 27.0825 309.405 27.0018 309.057 26.8405C308.712 26.6792 308.412 26.4335 308.155 26.1035C307.898 25.7735 307.697 25.3573 307.55 24.855C307.403 24.349 307.33 23.7513 307.33 23.062C307.33 22.3727 307.403 21.775 307.55 21.269C307.697 20.763 307.898 20.345 308.155 20.015C308.412 19.6813 308.712 19.4338 309.057 19.2725C309.405 19.1112 309.781 19.0305 310.185 19.0305C310.584 19.0305 310.958 19.1112 311.307 19.2725C311.659 19.4338 311.963 19.6813 312.22 20.015C312.476 20.345 312.678 20.763 312.825 21.269C312.975 21.775 313.05 22.3727 313.05 23.062ZM312.033 23.062C312.033 22.4607 311.981 21.9565 311.879 21.5495C311.78 21.1388 311.644 20.8088 311.472 20.5595C311.303 20.3102 311.107 20.1323 310.883 20.026C310.659 19.916 310.427 19.861 310.185 19.861C309.943 19.861 309.71 19.916 309.486 20.026C309.262 20.1323 309.066 20.3102 308.898 20.5595C308.729 20.8088 308.593 21.1388 308.491 21.5495C308.392 21.9565 308.342 22.4607 308.342 23.062C308.342 23.6633 308.392 24.1675 308.491 24.5745C308.593 24.9815 308.729 25.3097 308.898 25.559C309.066 25.8083 309.262 25.988 309.486 26.098C309.71 26.2043 309.943 26.2575 310.185 26.2575C310.427 26.2575 310.659 26.2043 310.883 26.098C311.107 25.988 311.303 25.8083 311.472 25.559C311.644 25.3097 311.78 24.9815 311.879 24.5745C311.981 24.1675 312.033 23.6633 312.033 23.062ZM315.377 21.434C315.377 21.6833 315.412 21.907 315.482 22.105C315.555 22.2993 315.658 22.4643 315.79 22.6C315.926 22.7357 316.089 22.8383 316.279 22.908C316.474 22.9777 316.69 23.0125 316.928 23.0125C317.192 23.0125 317.425 22.9703 317.627 22.886C317.832 22.798 318.005 22.6825 318.144 22.5395C318.283 22.3965 318.39 22.2315 318.463 22.0445C318.536 21.8575 318.573 21.6632 318.573 21.4615C318.573 21.2158 318.533 20.994 318.452 20.796C318.375 20.5943 318.267 20.4238 318.127 20.2845C317.988 20.1452 317.821 20.0388 317.627 19.9655C317.436 19.8885 317.225 19.85 316.994 19.85C316.752 19.85 316.532 19.8903 316.334 19.971C316.136 20.048 315.966 20.1562 315.823 20.2955C315.68 20.4348 315.57 20.6017 315.493 20.796C315.416 20.9903 315.377 21.203 315.377 21.434ZM317.665 23.8595C317.746 23.7532 317.821 23.6523 317.891 23.557C317.961 23.4617 318.027 23.3663 318.089 23.271C317.887 23.4323 317.66 23.5552 317.407 23.6395C317.154 23.7238 316.886 23.766 316.604 23.766C316.307 23.766 316.025 23.7165 315.757 23.6175C315.493 23.5185 315.26 23.3737 315.058 23.183C314.857 22.9887 314.695 22.7522 314.574 22.4735C314.457 22.1912 314.398 21.8685 314.398 21.5055C314.398 21.1608 314.463 20.8382 314.591 20.5375C314.719 20.2368 314.899 19.9747 315.13 19.751C315.361 19.5273 315.636 19.3513 315.955 19.223C316.274 19.0947 316.624 19.0305 317.005 19.0305C317.383 19.0305 317.726 19.0928 318.034 19.2175C318.342 19.3422 318.606 19.5163 318.826 19.74C319.046 19.9637 319.215 20.2313 319.332 20.543C319.453 20.8547 319.513 21.1993 319.513 21.577C319.513 21.8043 319.491 22.0207 319.447 22.226C319.407 22.4277 319.347 22.6275 319.266 22.8255C319.189 23.0198 319.094 23.2142 318.98 23.4085C318.866 23.5992 318.738 23.7953 318.595 23.997L316.675 26.769C316.628 26.8387 316.56 26.8955 316.472 26.9395C316.384 26.9798 316.283 27 316.169 27H315.267L317.665 23.8595ZM321.252 26.395C321.252 26.2997 321.269 26.2098 321.302 26.1255C321.338 26.0412 321.386 25.9678 321.445 25.9055C321.507 25.8432 321.58 25.7937 321.665 25.757C321.749 25.7203 321.839 25.702 321.934 25.702C322.03 25.702 322.119 25.7203 322.204 25.757C322.288 25.7937 322.361 25.8432 322.424 25.9055C322.486 25.9678 322.536 26.0412 322.572 26.1255C322.609 26.2098 322.627 26.2997 322.627 26.395C322.627 26.494 322.609 26.5857 322.572 26.67C322.536 26.7507 322.486 26.8222 322.424 26.8845C322.361 26.9468 322.288 26.9945 322.204 27.0275C322.119 27.0642 322.03 27.0825 321.934 27.0825C321.839 27.0825 321.749 27.0642 321.665 27.0275C321.58 26.9945 321.507 26.9468 321.445 26.8845C321.386 26.8222 321.338 26.7507 321.302 26.67C321.269 26.5857 321.252 26.494 321.252 26.395ZM329.11 26.0705C329.216 26.0705 329.3 26.1017 329.363 26.164C329.425 26.2263 329.456 26.307 329.456 26.406V27H324.198V26.6645C324.198 26.5948 324.213 26.5233 324.242 26.45C324.272 26.3767 324.317 26.3088 324.38 26.2465L326.904 23.711C327.113 23.4983 327.304 23.2948 327.476 23.1005C327.649 22.9025 327.795 22.7045 327.916 22.5065C328.037 22.3085 328.131 22.1087 328.197 21.907C328.263 21.7017 328.296 21.4835 328.296 21.2525C328.296 21.0215 328.259 20.8198 328.186 20.6475C328.112 20.4715 328.012 20.3267 327.883 20.213C327.759 20.0993 327.61 20.015 327.438 19.96C327.265 19.9013 327.08 19.872 326.882 19.872C326.681 19.872 326.495 19.9013 326.327 19.96C326.158 20.0187 326.008 20.1012 325.876 20.2075C325.747 20.3102 325.639 20.433 325.551 20.576C325.463 20.719 325.401 20.8767 325.364 21.049C325.32 21.1773 325.26 21.2635 325.183 21.3075C325.109 21.3478 325.005 21.3588 324.869 21.3405L324.358 21.2525C324.409 20.8932 324.508 20.576 324.655 20.301C324.805 20.0223 324.992 19.7895 325.216 19.6025C325.443 19.4155 325.702 19.2743 325.991 19.179C326.281 19.08 326.594 19.0305 326.932 19.0305C327.265 19.0305 327.577 19.08 327.867 19.179C328.156 19.278 328.408 19.4228 328.62 19.6135C328.833 19.8005 329 20.0297 329.121 20.301C329.242 20.5723 329.302 20.8803 329.302 21.225C329.302 21.5183 329.258 21.7915 329.17 22.0445C329.082 22.2938 328.963 22.5322 328.813 22.7595C328.662 22.9868 328.488 23.2087 328.29 23.425C328.096 23.6413 327.889 23.8595 327.669 24.0795L325.59 26.2025C325.736 26.1622 325.885 26.131 326.035 26.109C326.186 26.0833 326.33 26.0705 326.47 26.0705H329.11ZM334.517 24.1565V20.906C334.517 20.8107 334.521 20.7062 334.528 20.5925C334.536 20.4788 334.547 20.3633 334.561 20.246L331.69 24.1565H334.517ZM336.569 24.1565V24.7175C336.569 24.7762 336.55 24.8257 336.514 24.866C336.481 24.9063 336.428 24.9265 336.354 24.9265H335.375V27H334.517V24.9265H331.019C330.946 24.9265 330.882 24.9063 330.827 24.866C330.775 24.822 330.742 24.7688 330.728 24.7065L330.629 24.206L334.462 19.1185H335.375V24.1565H336.569Z" fill="#3D278A" fill-opacity="0.7"/>
</svg>
