<svg width="35" height="35" viewBox="0 0 35 35" fill="none" xmlns="http://www.w3.org/2000/svg">
<circle cx="17.5" cy="17.5" r="15.5" stroke="#C5BCFC"/>
<path d="M17.5 2C20.5656 2 23.5624 2.90906 26.1113 4.61222C28.6603 6.31538 30.647 8.73615 31.8201 11.5684C32.9933 14.4007 33.3002 17.5172 32.7022 20.5239C32.1041 23.5306 30.6279 26.2924 28.4602 28.4602C26.2924 30.6279 23.5306 32.1041 20.5239 32.7022C17.5172 33.3002 14.4007 32.9933 11.5684 31.8201C8.73615 30.647 6.31538 28.6603 4.61222 26.1113C2.90906 23.5624 2 20.5656 2 17.5" stroke="#260CBC" stroke-width="2.4" stroke-linecap="round"/>
<path d="M16.8915 14.52V14.9475C16.8915 15.0735 16.878 15.1755 16.851 15.2535C16.824 15.3315 16.797 15.3975 16.77 15.4515L14.2095 20.6625C14.1645 20.7585 14.1 20.8395 14.016 20.9055C13.935 20.9685 13.827 21 13.692 21H12.9945L15.6045 15.8745C15.6525 15.7815 15.7005 15.6975 15.7485 15.6225C15.7965 15.5475 15.8505 15.4755 15.9105 15.4065H12.675C12.615 15.4065 12.5625 15.384 12.5175 15.339C12.4725 15.291 12.45 15.237 12.45 15.177V14.52H16.8915ZM18.9532 16.914C19.1092 16.881 19.2577 16.857 19.3987 16.842C19.5427 16.827 19.6807 16.8195 19.8127 16.8195C20.1517 16.8195 20.4502 16.8705 20.7082 16.9725C20.9692 17.0715 21.1867 17.2095 21.3607 17.3865C21.5377 17.5635 21.6697 17.772 21.7567 18.012C21.8467 18.249 21.8917 18.507 21.8917 18.786C21.8917 19.131 21.8317 19.4445 21.7117 19.7265C21.5917 20.0085 21.4252 20.25 21.2122 20.451C20.9992 20.649 20.7472 20.802 20.4562 20.91C20.1682 21.018 19.8562 21.072 19.5202 21.072C19.3222 21.072 19.1332 21.0525 18.9532 21.0135C18.7762 20.9745 18.6097 20.922 18.4537 20.856C18.2977 20.787 18.1537 20.709 18.0217 20.622C17.8897 20.532 17.7712 20.439 17.6662 20.343L17.9632 19.929C18.0262 19.839 18.1102 19.794 18.2152 19.794C18.2812 19.794 18.3532 19.818 18.4312 19.866C18.5092 19.914 18.5992 19.9665 18.7012 20.0235C18.8062 20.0775 18.9292 20.1285 19.0702 20.1765C19.2112 20.2245 19.3792 20.2485 19.5742 20.2485C19.7872 20.2485 19.9777 20.214 20.1457 20.145C20.3137 20.076 20.4547 19.98 20.5687 19.857C20.6857 19.731 20.7742 19.581 20.8342 19.407C20.8942 19.233 20.9242 19.0425 20.9242 18.8355C20.9242 18.6465 20.8957 18.477 20.8387 18.327C20.7847 18.177 20.7022 18.0495 20.5912 17.9445C20.4832 17.8395 20.3467 17.76 20.1817 17.706C20.0167 17.649 19.8262 17.6205 19.6102 17.6205C19.4512 17.6205 19.2877 17.634 19.1197 17.661C18.9547 17.688 18.7867 17.73 18.6157 17.787L18.0127 17.616L18.5437 14.52H21.6802V14.9385C21.6802 15.0765 21.6367 15.189 21.5497 15.276C21.4627 15.363 21.3172 15.4065 21.1132 15.4065H19.2142L18.9532 16.914Z" fill="#15037E"/>
</svg>
