<svg width="35" height="35" viewBox="0 0 35 35" fill="none" xmlns="http://www.w3.org/2000/svg">
<circle cx="17.5" cy="17.5" r="15.5" stroke="#C5BCFC"/>
<path d="M17.5 2C20.6266 2 23.6802 2.94557 26.2596 4.71255C28.8391 6.47953 30.8239 8.98529 31.9533 11.9008C33.0828 14.8163 33.3041 18.0052 32.5883 21.0488C31.8724 24.0924 30.2528 26.8483 27.9422 28.9547C25.6316 31.0611 22.738 32.4194 19.6413 32.8514C16.5447 33.2833 13.3898 32.7687 10.5909 31.375C7.7921 29.9813 5.48018 27.7737 3.95878 25.0422C2.43737 22.3107 1.77761 19.183 2.06614 16.0697" stroke="#260CBC" stroke-width="2.4" stroke-linecap="round"/>
<path d="M16.8915 14.52V14.9475C16.8915 15.0735 16.878 15.1755 16.851 15.2535C16.824 15.3315 16.797 15.3975 16.77 15.4515L14.2095 20.6625C14.1645 20.7585 14.1 20.8395 14.016 20.9055C13.935 20.9685 13.827 21 13.692 21H12.9945L15.6045 15.8745C15.6525 15.7815 15.7005 15.6975 15.7485 15.6225C15.7965 15.5475 15.8505 15.4755 15.9105 15.4065H12.675C12.615 15.4065 12.5625 15.384 12.5175 15.339C12.4725 15.291 12.45 15.237 12.45 15.177V14.52H16.8915ZM19.8307 20.307C20.0257 20.307 20.1997 20.28 20.3527 20.226C20.5057 20.169 20.6332 20.091 20.7352 19.992C20.8402 19.89 20.9197 19.77 20.9737 19.632C21.0277 19.494 21.0547 19.344 21.0547 19.182C21.0547 18.984 21.0232 18.813 20.9602 18.669C20.9002 18.525 20.8147 18.4065 20.7037 18.3135C20.5957 18.2175 20.4667 18.147 20.3167 18.102C20.1667 18.054 20.0047 18.03 19.8307 18.03C19.6567 18.03 19.4947 18.054 19.3447 18.102C19.1947 18.147 19.0642 18.2175 18.9532 18.3135C18.8452 18.4065 18.7597 18.525 18.6967 18.669C18.6367 18.813 18.6067 18.984 18.6067 19.182C18.6067 19.344 18.6337 19.494 18.6877 19.632C18.7417 19.77 18.8197 19.89 18.9217 19.992C19.0267 20.091 19.1557 20.169 19.3087 20.226C19.4617 20.28 19.6357 20.307 19.8307 20.307ZM19.8307 15.1905C19.6537 15.1905 19.4977 15.2175 19.3627 15.2715C19.2307 15.3255 19.1212 15.3975 19.0342 15.4875C18.9472 15.5775 18.8812 15.684 18.8362 15.807C18.7942 15.927 18.7732 16.0545 18.7732 16.1895C18.7732 16.3245 18.7912 16.4565 18.8272 16.5855C18.8662 16.7145 18.9262 16.83 19.0072 16.932C19.0912 17.031 19.2007 17.1105 19.3357 17.1705C19.4707 17.2305 19.6357 17.2605 19.8307 17.2605C20.0257 17.2605 20.1907 17.2305 20.3257 17.1705C20.4607 17.1105 20.5687 17.031 20.6497 16.932C20.7337 16.83 20.7937 16.7145 20.8297 16.5855C20.8687 16.4565 20.8882 16.3245 20.8882 16.1895C20.8882 16.0545 20.8657 15.927 20.8207 15.807C20.7787 15.684 20.7127 15.5775 20.6227 15.4875C20.5357 15.3975 20.4262 15.3255 20.2942 15.2715C20.1622 15.2175 20.0077 15.1905 19.8307 15.1905ZM20.8522 17.6205C21.2512 17.7435 21.5497 17.9385 21.7477 18.2055C21.9487 18.4725 22.0492 18.804 22.0492 19.2C22.0492 19.485 21.9952 19.743 21.8872 19.974C21.7792 20.205 21.6277 20.4015 21.4327 20.5635C21.2377 20.7255 21.0037 20.8515 20.7307 20.9415C20.4607 21.0285 20.1607 21.072 19.8307 21.072C19.5007 21.072 19.1992 21.0285 18.9262 20.9415C18.6562 20.8515 18.4237 20.7255 18.2287 20.5635C18.0337 20.4015 17.8822 20.205 17.7742 19.974C17.6662 19.743 17.6122 19.485 17.6122 19.2C17.6122 18.804 17.7112 18.4725 17.9092 18.2055C18.1102 17.9385 18.4102 17.7435 18.8092 17.6205C18.4852 17.4915 18.2407 17.304 18.0757 17.058C17.9137 16.812 17.8327 16.5165 17.8327 16.1715C17.8327 15.9285 17.8807 15.702 17.9767 15.492C18.0727 15.282 18.2077 15.1005 18.3817 14.9475C18.5587 14.7915 18.7702 14.67 19.0162 14.583C19.2622 14.493 19.5337 14.448 19.8307 14.448C20.1277 14.448 20.3977 14.493 20.6407 14.583C20.8867 14.67 21.0967 14.7915 21.2707 14.9475C21.4477 15.1005 21.5842 15.282 21.6802 15.492C21.7792 15.702 21.8287 15.9285 21.8287 16.1715C21.8287 16.5165 21.7462 16.812 21.5812 17.058C21.4192 17.304 21.1762 17.4915 20.8522 17.6205Z" fill="#15037E"/>
</svg>
