<svg width="34" height="35" viewBox="0 0 34 35" fill="none" xmlns="http://www.w3.org/2000/svg">
<circle cx="16.5" cy="17.5" r="15.5" stroke="#C5BCFC"/>
<path d="M16.5 2C18.6993 2 20.8733 2.468 22.8778 3.37292C24.8822 4.27783 26.6711 5.59893 28.1257 7.24845C29.5802 8.89797 30.6671 10.8381 31.3141 12.9401C31.9611 15.042 32.1534 17.2575 31.8782 19.4394C31.603 21.6214 30.8667 23.7198 29.7181 25.5953C28.5695 27.4707 27.0349 29.0803 25.2163 30.317C23.3978 31.5537 21.3369 32.3893 19.1705 32.7682C17.0042 33.1471 14.782 33.0607 12.6516 32.5147" stroke="#8F1AEB" stroke-width="2.4" stroke-linecap="round"/>
<path d="M12.7325 16.914C12.8885 16.881 13.037 16.857 13.178 16.842C13.322 16.827 13.46 16.8195 13.592 16.8195C13.931 16.8195 14.2295 16.8705 14.4875 16.9725C14.7485 17.0715 14.966 17.2095 15.14 17.3865C15.317 17.5635 15.449 17.772 15.536 18.012C15.626 18.249 15.671 18.507 15.671 18.786C15.671 19.131 15.611 19.4445 15.491 19.7265C15.371 20.0085 15.2045 20.25 14.9915 20.451C14.7785 20.649 14.5265 20.802 14.2355 20.91C13.9475 21.018 13.6355 21.072 13.2995 21.072C13.1015 21.072 12.9125 21.0525 12.7325 21.0135C12.5555 20.9745 12.389 20.922 12.233 20.856C12.077 20.787 11.933 20.709 11.801 20.622C11.669 20.532 11.5505 20.439 11.4455 20.343L11.7425 19.929C11.8055 19.839 11.8895 19.794 11.9945 19.794C12.0605 19.794 12.1325 19.818 12.2105 19.866C12.2885 19.914 12.3785 19.9665 12.4805 20.0235C12.5855 20.0775 12.7085 20.1285 12.8495 20.1765C12.9905 20.2245 13.1585 20.2485 13.3535 20.2485C13.5665 20.2485 13.757 20.214 13.925 20.145C14.093 20.076 14.234 19.98 14.348 19.857C14.465 19.731 14.5535 19.581 14.6135 19.407C14.6735 19.233 14.7035 19.0425 14.7035 18.8355C14.7035 18.6465 14.675 18.477 14.618 18.327C14.564 18.177 14.4815 18.0495 14.3705 17.9445C14.2625 17.8395 14.126 17.76 13.961 17.706C13.796 17.649 13.6055 17.6205 13.3895 17.6205C13.2305 17.6205 13.067 17.634 12.899 17.661C12.734 17.688 12.566 17.73 12.395 17.787L11.792 17.616L12.323 14.52H15.4595V14.9385C15.4595 15.0765 15.416 15.189 15.329 15.276C15.242 15.363 15.0965 15.4065 14.8925 15.4065H12.9935L12.7325 16.914ZM18.8307 20.307C19.0257 20.307 19.1997 20.28 19.3527 20.226C19.5057 20.169 19.6332 20.091 19.7352 19.992C19.8402 19.89 19.9197 19.77 19.9737 19.632C20.0277 19.494 20.0547 19.344 20.0547 19.182C20.0547 18.984 20.0232 18.813 19.9602 18.669C19.9002 18.525 19.8147 18.4065 19.7037 18.3135C19.5957 18.2175 19.4667 18.147 19.3167 18.102C19.1667 18.054 19.0047 18.03 18.8307 18.03C18.6567 18.03 18.4947 18.054 18.3447 18.102C18.1947 18.147 18.0642 18.2175 17.9532 18.3135C17.8452 18.4065 17.7597 18.525 17.6967 18.669C17.6367 18.813 17.6067 18.984 17.6067 19.182C17.6067 19.344 17.6337 19.494 17.6877 19.632C17.7417 19.77 17.8197 19.89 17.9217 19.992C18.0267 20.091 18.1557 20.169 18.3087 20.226C18.4617 20.28 18.6357 20.307 18.8307 20.307ZM18.8307 15.1905C18.6537 15.1905 18.4977 15.2175 18.3627 15.2715C18.2307 15.3255 18.1212 15.3975 18.0342 15.4875C17.9472 15.5775 17.8812 15.684 17.8362 15.807C17.7942 15.927 17.7732 16.0545 17.7732 16.1895C17.7732 16.3245 17.7912 16.4565 17.8272 16.5855C17.8662 16.7145 17.9262 16.83 18.0072 16.932C18.0912 17.031 18.2007 17.1105 18.3357 17.1705C18.4707 17.2305 18.6357 17.2605 18.8307 17.2605C19.0257 17.2605 19.1907 17.2305 19.3257 17.1705C19.4607 17.1105 19.5687 17.031 19.6497 16.932C19.7337 16.83 19.7937 16.7145 19.8297 16.5855C19.8687 16.4565 19.8882 16.3245 19.8882 16.1895C19.8882 16.0545 19.8657 15.927 19.8207 15.807C19.7787 15.684 19.7127 15.5775 19.6227 15.4875C19.5357 15.3975 19.4262 15.3255 19.2942 15.2715C19.1622 15.2175 19.0077 15.1905 18.8307 15.1905ZM19.8522 17.6205C20.2512 17.7435 20.5497 17.9385 20.7477 18.2055C20.9487 18.4725 21.0492 18.804 21.0492 19.2C21.0492 19.485 20.9952 19.743 20.8872 19.974C20.7792 20.205 20.6277 20.4015 20.4327 20.5635C20.2377 20.7255 20.0037 20.8515 19.7307 20.9415C19.4607 21.0285 19.1607 21.072 18.8307 21.072C18.5007 21.072 18.1992 21.0285 17.9262 20.9415C17.6562 20.8515 17.4237 20.7255 17.2287 20.5635C17.0337 20.4015 16.8822 20.205 16.7742 19.974C16.6662 19.743 16.6122 19.485 16.6122 19.2C16.6122 18.804 16.7112 18.4725 16.9092 18.2055C17.1102 17.9385 17.4102 17.7435 17.8092 17.6205C17.4852 17.4915 17.2407 17.304 17.0757 17.058C16.9137 16.812 16.8327 16.5165 16.8327 16.1715C16.8327 15.9285 16.8807 15.702 16.9767 15.492C17.0727 15.282 17.2077 15.1005 17.3817 14.9475C17.5587 14.7915 17.7702 14.67 18.0162 14.583C18.2622 14.493 18.5337 14.448 18.8307 14.448C19.1277 14.448 19.3977 14.493 19.6407 14.583C19.8867 14.67 20.0967 14.7915 20.2707 14.9475C20.4477 15.1005 20.5842 15.282 20.6802 15.492C20.7792 15.702 20.8287 15.9285 20.8287 16.1715C20.8287 16.5165 20.7462 16.812 20.5812 17.058C20.4192 17.304 20.1762 17.4915 19.8522 17.6205Z" fill="#15037E"/>
</svg>
