<svg width="35" height="35" viewBox="0 0 35 35" fill="none" xmlns="http://www.w3.org/2000/svg">
<circle cx="17.5" cy="17.5" r="15.5" stroke="#C5BCFC"/>
<path d="M17.5 2C21.1663 2 24.7139 3.29961 27.5126 5.66796C30.3113 8.03631 32.1799 11.3201 32.7864 14.9358C33.393 18.5516 32.6981 22.2654 30.8254 25.4173C28.9527 28.5692 26.0233 30.9553 22.5576 32.1516C19.092 33.3479 15.3145 33.2771 11.8962 31.9516C8.47788 30.626 5.64008 28.1318 3.88693 24.9118C2.13378 21.6918 1.57878 17.9546 2.32053 14.3641C3.06228 10.7736 5.05276 7.5623 7.93835 5.30062" stroke="#260CBC" stroke-width="2.4" stroke-linecap="round"/>
<path d="M13.386 16.446C13.386 16.83 13.488 17.1255 13.692 17.3325C13.899 17.5365 14.187 17.6385 14.556 17.6385C14.754 17.6385 14.928 17.607 15.078 17.544C15.231 17.481 15.36 17.397 15.465 17.292C15.57 17.184 15.6495 17.0595 15.7035 16.9185C15.7575 16.7745 15.7845 16.6215 15.7845 16.4595C15.7845 16.2705 15.7545 16.1025 15.6945 15.9555C15.6375 15.8055 15.555 15.678 15.447 15.573C15.342 15.468 15.216 15.3885 15.069 15.3345C14.922 15.2775 14.7615 15.249 14.5875 15.249C14.4045 15.249 14.2395 15.279 14.0925 15.339C13.9455 15.399 13.8195 15.483 13.7145 15.591C13.6095 15.696 13.5285 15.822 13.4715 15.969C13.4145 16.113 13.386 16.272 13.386 16.446ZM15.0465 18.4575C15.1065 18.3825 15.162 18.312 15.213 18.246C15.264 18.177 15.312 18.108 15.357 18.039C15.201 18.15 15.027 18.2355 14.835 18.2955C14.643 18.3525 14.439 18.381 14.223 18.381C13.989 18.381 13.764 18.342 13.548 18.264C13.332 18.183 13.14 18.0645 12.972 17.9085C12.804 17.7495 12.669 17.5545 12.567 17.3235C12.468 17.0895 12.4185 16.821 12.4185 16.518C12.4185 16.233 12.471 15.9645 12.576 15.7125C12.684 15.4605 12.834 15.2415 13.026 15.0555C13.218 14.8665 13.4475 14.718 13.7145 14.61C13.9815 14.502 14.277 14.448 14.601 14.448C14.922 14.448 15.213 14.5005 15.474 14.6055C15.735 14.7075 15.957 14.853 16.14 15.042C16.323 15.228 16.464 15.4515 16.563 15.7125C16.662 15.9705 16.7115 16.2555 16.7115 16.5675C16.7115 16.7625 16.6935 16.947 16.6575 17.121C16.6245 17.295 16.575 17.4645 16.509 17.6295C16.446 17.7915 16.368 17.952 16.275 18.111C16.185 18.267 16.083 18.426 15.969 18.588L14.4435 20.775C14.3985 20.841 14.331 20.895 14.241 20.937C14.154 20.979 14.055 21 13.944 21H13.0575L15.0465 18.4575ZM22.1122 14.52V14.9475C22.1122 15.0735 22.0987 15.1755 22.0717 15.2535C22.0447 15.3315 22.0177 15.3975 21.9907 15.4515L19.4302 20.6625C19.3852 20.7585 19.3207 20.8395 19.2367 20.9055C19.1557 20.9685 19.0477 21 18.9127 21H18.2152L20.8252 15.8745C20.8732 15.7815 20.9212 15.6975 20.9692 15.6225C21.0172 15.5475 21.0712 15.4755 21.1312 15.4065H17.8957C17.8357 15.4065 17.7832 15.384 17.7382 15.339C17.6932 15.291 17.6707 15.237 17.6707 15.177V14.52H22.1122Z" fill="#15037E"/>
</svg>
