<svg width="35" height="35" viewBox="0 0 35 35" fill="none" xmlns="http://www.w3.org/2000/svg">
<circle cx="17.5" cy="17.5" r="15.5" stroke="#C5BCFC"/>
<path d="M17.5 2C20.8585 2 24.126 3.09081 26.811 5.10827C29.496 7.12573 31.4531 9.96068 32.3877 13.1865C33.3223 16.4122 33.184 19.8543 31.9934 22.9947C30.8028 26.135 28.6245 28.8037 25.7863 30.5991C22.948 32.3946 19.6034 33.2196 16.2558 32.95C12.9082 32.6804 9.73869 31.3308 7.22432 29.1043C4.70996 26.8779 2.98677 23.895 2.3141 20.6046C1.64142 17.3142 2.05564 13.8943 3.49444 10.8597" stroke="#260CBC" stroke-width="2.4" stroke-linecap="round"/>
<path d="M14.61 20.307C14.805 20.307 14.979 20.28 15.132 20.226C15.285 20.169 15.4125 20.091 15.5145 19.992C15.6195 19.89 15.699 19.77 15.753 19.632C15.807 19.494 15.834 19.344 15.834 19.182C15.834 18.984 15.8025 18.813 15.7395 18.669C15.6795 18.525 15.594 18.4065 15.483 18.3135C15.375 18.2175 15.246 18.147 15.096 18.102C14.946 18.054 14.784 18.03 14.61 18.03C14.436 18.03 14.274 18.054 14.124 18.102C13.974 18.147 13.8435 18.2175 13.7325 18.3135C13.6245 18.4065 13.539 18.525 13.476 18.669C13.416 18.813 13.386 18.984 13.386 19.182C13.386 19.344 13.413 19.494 13.467 19.632C13.521 19.77 13.599 19.89 13.701 19.992C13.806 20.091 13.935 20.169 14.088 20.226C14.241 20.28 14.415 20.307 14.61 20.307ZM14.61 15.1905C14.433 15.1905 14.277 15.2175 14.142 15.2715C14.01 15.3255 13.9005 15.3975 13.8135 15.4875C13.7265 15.5775 13.6605 15.684 13.6155 15.807C13.5735 15.927 13.5525 16.0545 13.5525 16.1895C13.5525 16.3245 13.5705 16.4565 13.6065 16.5855C13.6455 16.7145 13.7055 16.83 13.7865 16.932C13.8705 17.031 13.98 17.1105 14.115 17.1705C14.25 17.2305 14.415 17.2605 14.61 17.2605C14.805 17.2605 14.97 17.2305 15.105 17.1705C15.24 17.1105 15.348 17.031 15.429 16.932C15.513 16.83 15.573 16.7145 15.609 16.5855C15.648 16.4565 15.6675 16.3245 15.6675 16.1895C15.6675 16.0545 15.645 15.927 15.6 15.807C15.558 15.684 15.492 15.5775 15.402 15.4875C15.315 15.3975 15.2055 15.3255 15.0735 15.2715C14.9415 15.2175 14.787 15.1905 14.61 15.1905ZM15.6315 17.6205C16.0305 17.7435 16.329 17.9385 16.527 18.2055C16.728 18.4725 16.8285 18.804 16.8285 19.2C16.8285 19.485 16.7745 19.743 16.6665 19.974C16.5585 20.205 16.407 20.4015 16.212 20.5635C16.017 20.7255 15.783 20.8515 15.51 20.9415C15.24 21.0285 14.94 21.072 14.61 21.072C14.28 21.072 13.9785 21.0285 13.7055 20.9415C13.4355 20.8515 13.203 20.7255 13.008 20.5635C12.813 20.4015 12.6615 20.205 12.5535 19.974C12.4455 19.743 12.3915 19.485 12.3915 19.2C12.3915 18.804 12.4905 18.4725 12.6885 18.2055C12.8895 17.9385 13.1895 17.7435 13.5885 17.6205C13.2645 17.4915 13.02 17.304 12.855 17.058C12.693 16.812 12.612 16.5165 12.612 16.1715C12.612 15.9285 12.66 15.702 12.756 15.492C12.852 15.282 12.987 15.1005 13.161 14.9475C13.338 14.7915 13.5495 14.67 13.7955 14.583C14.0415 14.493 14.313 14.448 14.61 14.448C14.907 14.448 15.177 14.493 15.42 14.583C15.666 14.67 15.876 14.7915 16.05 14.9475C16.227 15.1005 16.3635 15.282 16.4595 15.492C16.5585 15.702 16.608 15.9285 16.608 16.1715C16.608 16.5165 16.5255 16.812 16.3605 17.058C16.1985 17.304 15.9555 17.4915 15.6315 17.6205ZM17.7517 16.302C17.7967 15.996 17.8807 15.7275 18.0037 15.4965C18.1297 15.2655 18.2872 15.0735 18.4762 14.9205C18.6652 14.7645 18.8812 14.6475 19.1242 14.5695C19.3702 14.4885 19.6357 14.448 19.9207 14.448C20.2087 14.448 20.4697 14.49 20.7037 14.574C20.9407 14.655 21.1432 14.769 21.3112 14.916C21.4822 15.063 21.6127 15.2385 21.7027 15.4425C21.7957 15.6465 21.8422 15.87 21.8422 16.113C21.8422 16.32 21.8167 16.503 21.7657 16.662C21.7177 16.818 21.6472 16.956 21.5542 17.076C21.4642 17.196 21.3532 17.2965 21.2212 17.3775C21.0892 17.4585 20.9407 17.526 20.7757 17.58C21.1777 17.697 21.4792 17.8845 21.6802 18.1425C21.8812 18.3975 21.9817 18.7185 21.9817 19.1055C21.9817 19.4175 21.9232 19.695 21.8062 19.938C21.6892 20.181 21.5302 20.3865 21.3292 20.5545C21.1312 20.7225 20.8987 20.8515 20.6317 20.9415C20.3677 21.0285 20.0872 21.072 19.7902 21.072C19.4572 21.072 19.1692 21.033 18.9262 20.955C18.6832 20.874 18.4732 20.76 18.2962 20.613C18.1222 20.463 17.9767 20.283 17.8597 20.073C17.7427 19.863 17.6437 19.6275 17.5627 19.3665L17.9812 19.191C18.0922 19.143 18.1972 19.1295 18.2962 19.1505C18.3982 19.1715 18.4717 19.227 18.5167 19.317C18.5647 19.413 18.6187 19.5165 18.6787 19.6275C18.7387 19.7355 18.8152 19.836 18.9082 19.929C19.0042 20.019 19.1212 20.0955 19.2592 20.1585C19.4002 20.2185 19.5727 20.2485 19.7767 20.2485C19.9837 20.2485 20.1637 20.2155 20.3167 20.1495C20.4727 20.0805 20.6017 19.9935 20.7037 19.8885C20.8087 19.7805 20.8867 19.6605 20.9377 19.5285C20.9887 19.3965 21.0142 19.266 21.0142 19.137C21.0142 18.975 20.9947 18.8265 20.9557 18.6915C20.9167 18.5535 20.8402 18.4365 20.7262 18.3405C20.6152 18.2445 20.4562 18.1695 20.2492 18.1155C20.0452 18.0585 19.7767 18.03 19.4437 18.03V17.3325C19.7167 17.3295 19.9462 17.3025 20.1322 17.2515C20.3212 17.1975 20.4712 17.1255 20.5822 17.0355C20.6962 16.9425 20.7772 16.8315 20.8252 16.7025C20.8762 16.5735 20.9017 16.4325 20.9017 16.2795C20.9017 16.1145 20.8762 15.969 20.8252 15.843C20.7742 15.717 20.7022 15.612 20.6092 15.528C20.5192 15.441 20.4112 15.3765 20.2852 15.3345C20.1592 15.2925 20.0197 15.2715 19.8667 15.2715C19.7197 15.2715 19.5832 15.2925 19.4572 15.3345C19.3342 15.3765 19.2232 15.435 19.1242 15.51C19.0282 15.585 18.9472 15.675 18.8812 15.78C18.8152 15.882 18.7672 15.9945 18.7372 16.1175C18.6952 16.2405 18.6382 16.323 18.5662 16.365C18.4972 16.407 18.3952 16.416 18.2602 16.392L17.7517 16.302Z" fill="#15037E"/>
</svg>
