<svg width="290" height="305" viewBox="0 0 290 305" fill="none" xmlns="http://www.w3.org/2000/svg">
<path d="M175.432 105.725C173.937 106.995 170.49 106.254 168.953 105.725L186.52 115.863C188.638 112.321 195.589 98.8352 195.988 97.6625C196.486 96.1967 197.608 97.1739 201.594 92.5321C204.784 88.8187 203.837 80.9683 202.965 77.5073C198.812 71.5626 188.388 62.6779 179.917 74.6978C169.327 89.7227 184.277 92.0436 184.277 93.2651C184.277 94.4866 177.3 104.137 175.432 105.725Z" fill="#FC9EAD"/>
<path d="M180.628 86.5475C181.66 87.5675 182.959 87.5675 184.116 86.1016C185.273 84.6358 184.65 83.7807 183.155 83.2921C181.66 82.8035 180.788 82.437 179.88 83.5364C178.972 84.6358 179.595 85.5276 180.628 86.5475Z" fill="white"/>
<path d="M176.209 106.195C177.952 104.24 184.433 93.6477 183.181 97.6407C182.272 100.54 179.69 104.087 178.71 105.289C177.73 106.49 174.465 108.15 176.209 106.195Z" fill="#F2A7A9" fill-opacity="0.7"/>
<path d="M273.56 72.8151C281.359 62.0903 277.09 58.6333 273.866 47.541C272.188 39.7202 272.99 31.7098 256.959 35.5899C240.928 39.4699 249.227 15.8112 235.877 25.384C216.442 40.0539 225.949 45.0473 208.267 43.7169C190.584 42.3865 196.326 65.9535 194.85 70.4313C193.153 75.5805 198.706 79.1903 204.35 78.8271C223.33 77.6059 224.17 93.7839 242.41 79.1471C251.871 71.5547 263.811 86.2212 273.56 72.8151Z" fill="#00093E"/>
<path d="M201.567 54.0394C198.755 61.461 199.849 66.5859 202.409 61.9697C205.211 56.9153 211.196 49.7798 217.068 49.0819C228.343 47.7421 214.712 46.4218 211.804 47.7086C208.764 49.0538 204.953 45.1046 201.567 54.0394Z" fill="#6421F3"/>
<path d="M234.026 31.6731C230.51 35.3975 231.403 37.2539 233.174 34.5761C234.945 31.8983 239.545 31.583 239.437 30.0552C239.329 28.5273 237.542 27.9488 234.026 31.6731Z" fill="#7E57C2" fill-opacity="0.7"/>
<path d="M189.871 65.7926C195.306 66.7687 204.472 73.3142 203.351 79.6485C202.229 85.9828 202.888 77.42 193.583 79.1775C190.346 79.789 188.133 74.3539 188.133 74.3539C174.545 76.1163 183.077 64.5724 189.871 65.7926Z" fill="#00093E" stroke="#1A0481" stroke-width="0.7"/>
<path d="M136.051 133.82L114 149.987C119.183 152.723 155.86 156.011 164.705 161.182C171.371 161.344 182.631 169.004 192.238 168.433C204.419 167.709 211.287 158.612 215.411 157.683C222.786 156.022 225.502 154.219 224.007 152.265C217.808 143.994 219.273 130.86 212.296 123.725C205.319 116.589 190.151 119.111 186.507 116.596L164.705 103.892C164.391 96.9116 180.652 73.9983 173.551 58.4849C197.471 54.2095 198.717 9.9991 198.717 9.9991H205.07C205.07 9.9991 212.545 10.8547 212.545 7.55661C212.545 6.57938 205.818 7.67876 205.07 6.94584C204.323 6.21292 210.216 5.80913 211.175 5.96905C223.633 8.04596 217.279 3.40384 213.168 2.30445C200.834 -0.993701 199.624 -0.753439 197.346 3.03712C194.899 7.10863 195.228 9.9991 195.228 9.9991C195.228 9.9991 157.538 36.3077 164.705 58.4849C125.088 71.6864 142.417 114.306 136.051 133.82Z" fill="#FC9EAD"/>
<path d="M215.655 2.68737C206.232 1.01319 202.715 0.81039 199.583 1.71014C200.68 0.635197 201.203 6.07553e-06 203.321 0C205.439 -6.075e-06 215.655 2.68737 215.655 2.68737Z" fill="#F1ABA6" fill-opacity="0.7"/>
<path d="M164.613 159.072L137.018 134.892C136.403 134.353 136.174 133.494 136.392 132.706C136.934 130.748 137.858 126.719 137.985 121.665C138.003 120.946 138.386 120.28 139.011 119.925L166.011 104.576C166.637 104.22 167.407 104.228 168.025 104.597L188.166 116.623C188.866 117.041 189.243 117.842 189.117 118.648L186.169 137.545C186.115 137.896 185.968 138.226 185.743 138.501L176.991 149.24L167.352 158.975C166.608 159.727 165.408 159.769 164.613 159.072Z" fill="#B732F5"/>
<path d="M171.186 139.586C164.708 139.586 163.338 134.537 163.462 132.012C163.213 131.768 162.715 135.188 163.213 137.509C163.612 139.366 165.66 141.53 168.072 141.296C169.459 141.162 177.665 139.586 171.186 139.586Z" fill="#7D34B7" fill-opacity="0.7"/>
<path d="M155.961 125.814C149.482 125.814 148.112 120.765 148.236 118.24C147.987 117.996 147.489 121.416 147.987 123.737C148.386 125.594 150.434 127.758 152.846 127.524C154.233 127.39 162.439 125.814 155.961 125.814Z" fill="#7D34B7" fill-opacity="0.7"/>
<path d="M209.941 150.11C213.18 150.598 213.055 152.345 209.941 152.51C208.379 152.593 198.798 150.252 189.509 150.598C180.271 150.943 171.32 153.976 171.32 153.976L181.286 143.636L186.893 134.841C186.893 134.841 193.869 142.621 196.112 144.124C198.354 145.628 202.964 147.667 202.964 147.667C205.331 148.644 206.701 149.621 209.941 150.11Z" fill="#F2F6F9"/>
<path d="M198.712 120.073C196.483 119.523 192.931 119.614 192.096 120.073C190.703 120.837 196.274 122.137 199.583 122.137C202.229 122.137 203.355 121.678 203.587 121.449C203.587 120.837 200.941 120.623 198.712 120.073Z" fill="#F4ABAE" fill-opacity="0.7"/>
<path d="M206.241 124.091C204.372 124.091 219.183 151.248 221.316 152.084C218.076 142.19 216.704 134.617 214.09 130.341C211.321 125.813 207.028 124.091 206.241 124.091Z" fill="#F4ABAE" fill-opacity="0.7"/>
<path d="M178.048 152.186C184.153 150.232 199.403 149.918 206.578 152.186C205.813 152.871 198.737 154.376 178.048 152.186Z" fill="#F6B3B7" fill-opacity="0.7"/>
<path d="M137.558 135.329C134.967 135.623 128.92 140.501 126.221 142.903C123.522 145.305 134.443 137.65 134.443 137.65C137.683 137.406 140.797 134.963 137.558 135.329Z" fill="#F2A7A9" fill-opacity="0.7"/>
<path d="M148.646 148.155C148.474 147.687 147.635 147.823 147.129 147.789C146.512 147.748 146.319 148.321 145.898 148.766C145.63 149.049 145.285 149.162 145.282 149.548C145.278 150.181 145.758 149.539 146.404 149.548C147.129 149.557 147.702 149.644 147.781 148.937C147.832 148.491 148.755 148.452 148.646 148.155Z" fill="#F2A7A9" fill-opacity="0.7"/>
<path d="M161.603 60.3272C137.683 69.6108 137.964 97.1693 138.917 113.692C139.869 130.214 140.916 98.2732 150.443 84.6357C159.97 70.9981 185.523 51.0436 161.603 60.3272Z" fill="#F08A9A"/>
<path d="M171.569 38.0954C167.583 46.1087 169.908 51.858 171.569 53.731C172.566 49.4964 171.096 42.8593 174.186 37.4846C178.048 30.7662 179.916 26.8573 186.395 23.437C191.577 20.7008 195.187 14.8863 188.139 20.261C182.159 24.8214 175.556 30.0822 171.569 38.0954Z" fill="#F08A9A"/>
<path d="M23.9379 280.692C23.6887 292.052 20.6987 291.52 20.6987 291.52C20.6987 291.52 27.0723 296.74 28.9212 294.696C30.5408 292.907 41.3332 288.9 58 268.5C70.2365 258.85 79.9262 244.16 80.4988 226.535C114.635 216.274 122.655 180.144 129.46 176.373C133.611 174.072 133.263 194.698 145.656 208.988C158.926 224.288 184.748 233.452 181.785 234.841C178.91 236.189 162.573 242.817 155.5 255C148.473 267.103 150.701 284.754 150.639 288.711C150.54 295.063 157.782 294.208 161.104 293.475C161.104 293.475 170.688 279.91 180.287 266.033C189.366 252.911 198.459 239.51 199.476 237.04C201.569 231.959 200.016 227.919 198.978 226.535C187.848 204.955 165.365 161.574 164.468 160.694C163.347 159.595 143.663 151.289 141.046 151.777C138.953 152.168 132.45 151.94 129.46 151.777C128.007 151.085 124.103 149.603 120.116 149.212C115.133 148.723 125.349 146.402 121.86 146.28C119.07 146.183 92.8325 157.073 80.4988 181.015C70.3675 200.681 69.3007 220.223 67.1683 221.325C36.77 237.04 24.0638 274.95 23.9379 280.692Z" fill="#260CBC"/>
<path d="M122.11 146.69C121.512 146.396 120.383 146.69 119.677 146.934L122.667 144.369L153.629 155.485L165.274 160.493L164.153 161.348C161.012 160.951 159.236 163.425 155.623 160.44C152.01 157.455 151.885 163.791 147.276 159.693C142.666 155.596 139.21 158.445 137.558 156.34C136.312 154.752 135.43 152.815 132.824 152.815C127.71 152.815 127.366 154.702 126.031 150.86C125.684 149.863 117.246 149.875 117.625 148.888C118.232 147.307 122.857 147.056 122.11 146.69Z" fill="#260076"/>
<path d="M149.767 296.04C149.368 294.477 150.265 292.865 151.137 291.399C153.38 290.666 152.633 295.187 160.107 292.987C163.471 291.997 156.951 298.117 155.622 298.606C153.837 298.402 150.166 297.604 149.767 296.04Z" fill="#A20FE8"/>
<path d="M20.5735 291.643C19.1781 293.206 18.9125 295.226 18.9541 296.04C20.3245 297.262 22.2887 297.838 24.4358 298.972C26.0553 299.827 29.6683 294.452 28.5468 294.452C21.2944 294.452 22.3176 289.688 20.5735 291.643Z" fill="#A20FE8"/>
<path d="M22.9459 304.713L0.022583 304.957C0.022583 301.171 6.37634 301.293 10.2384 300.804C14.1005 300.316 17.0905 298.117 17.838 297.75C18.436 297.457 18.8347 296.57 18.9593 296.162L24.3163 298.972C23.7765 299.664 22.7466 301.244 22.9459 302.026C23.1453 302.807 23.029 304.143 22.9459 304.713Z" fill="#FCC4CD"/>
<path d="M5.99778 304.267C1.01445 304.463 1.51274 302.801 1.13903 302.924C0.441392 303.119 -0.106842 305 0.0177411 305C0.142324 305 23.0657 304.634 22.9411 304.634C22.8165 304.634 10.9811 304.072 5.99778 304.267Z" fill="#F2A7A9" fill-opacity="0.7"/>
<path d="M144.534 304.713C145.73 304.518 148.355 298.687 149.517 295.796C149.916 297.066 153.753 298.198 155.622 298.605C153.919 299.216 152.109 300.487 158.487 300.682C164.866 300.877 167.79 303.451 168.454 304.713C159.982 304.795 143.338 304.909 144.534 304.713Z" fill="#FCC4CD"/>
<path d="M149.642 213.019C154.127 218.516 170.24 227.066 179.293 231.83L152.757 206.056L130.705 176.128C133.945 181.259 134.877 191.168 139.426 199.338C143.164 207.033 147.754 210.704 149.642 213.019Z" fill="#2A1280" fill-opacity="0.7"/>
<path d="M88.5 169C95.7758 160.403 97.5715 160.043 104 155.5C112.798 149.282 99.6338 163.061 89.221 179.161C78.1397 196.295 69.6079 216.78 72.6062 204.083C73.6673 199.59 73.3556 197.815 75 193.5C78.6556 183.909 81.8689 176.835 88.5 169Z" fill="#291092"/>
<path d="M35.2266 269.464C31.2265 260.702 51.9702 228.053 67.5571 225.234C54.4046 232.314 40.5232 257.671 35.2266 269.464Z" fill="#2E13A0"/>
<path d="M152.751 258.812C149.891 263.894 149.256 276.044 151 281.5C151 281.5 156.233 259.789 159.098 255.513C161.963 251.238 178 237 178 237C162.178 240.909 156.738 251.727 152.751 258.812Z" fill="#291092"/>
</svg>
